<svg width="56" height="57" viewBox="0 0 56 57" fill="none" xmlns="http://www.w3.org/2000/svg">
<rect y="0.5" width="56" height="56" rx="12" fill="#FAFAFA"/>
<path d="M28 22.94V26.27" stroke="#AEAEAE" stroke-width="1.5" stroke-miterlimit="10" stroke-linecap="round"/>
<path d="M28.02 18.5C24.34 18.5 21.36 21.48 21.36 25.16V27.26C21.36 27.94 21.08 28.96 20.73 29.54L19.46 31.66C18.68 32.97 19.22 34.43 20.66 34.91C25.44 36.5 30.61 36.5 35.39 34.91C36.74 34.46 37.32 32.88 36.59 31.66L35.32 29.54C34.97 28.96 34.69 27.93 34.69 27.26V25.16C34.68 21.5 31.68 18.5 28.02 18.5Z" stroke="#AEAEAE" stroke-width="1.5" stroke-miterlimit="10" stroke-linecap="round"/>
<path d="M31.33 35.32C31.33 37.15 29.83 38.65 28 38.65C27.09 38.65 26.25 38.27 25.65 37.67C25.05 37.07 24.67 36.23 24.67 35.32" stroke="#AEAEAE" stroke-width="1.5" stroke-miterlimit="10"/>
</svg>
