<svg width="56" height="57" viewBox="0 0 56 57" fill="none" xmlns="http://www.w3.org/2000/svg">
<rect y="0.5" width="56" height="56" rx="12" fill="#FAFAFA"/>
<path d="M28.16 27.37C28.06 27.36 27.94 27.36 27.83 27.37C25.45 27.29 23.56 25.34 23.56 22.94C23.56 20.49 25.54 18.5 28 18.5C30.45 18.5 32.44 20.49 32.44 22.94C32.43 25.34 30.54 27.29 28.16 27.37Z" stroke="#AEAEAE" stroke-width="1.5" stroke-linecap="round" stroke-linejoin="round"/>
<path d="M23.16 31.06C20.74 32.68 20.74 35.32 23.16 36.93C25.91 38.77 30.42 38.77 33.17 36.93C35.59 35.31 35.59 32.67 33.17 31.06C30.43 29.23 25.92 29.23 23.16 31.06Z" stroke="#AEAEAE" stroke-width="1.5" stroke-linecap="round" stroke-linejoin="round"/>
</svg>
